# xmcd
#
# Track frame offsets:
#	150
#	19613
#	34989
#	61223
#	75165
#	89923
#	107404
#	125514
#	138009
#	157916
#	178203
#	194227
#	207948
#
# Disc length: 3016 seconds
#
# Revision: 1
# Processed by: cddbd v1.4PL0 Copyright (c) Steve Scherf et al.
# Submitted via: audiograbber 1.82.00
#
DISCID=ac0bc60d
DTITLE=Hash Brown and The Browntones - Have Some Fun
DYEAR=2002
DGENRE=Blues
TTITLE0=Blues For April Green
TTITLE1=Ain't No Way
TTITLE2=I've Got Ghe Blues
TTITLE3=You've Got To Lose
TTITLE4=Celluphone Blues
TTITLE5=The Woman I Love
TTITLE6=Glory Of A Man
TTITLE7=Poultry Queen Boogie
TTITLE8=Hot Dog
TTITLE9=You're The One
TTITLE10=Soul Survivor
TTITLE11=Muskadine Blues
TTITLE12=Hey Little Baby
EXTD=
EXTT0=
EXTT1=
EXTT2=
EXTT3=
EXTT4=
EXTT5=
EXTT6=
EXTT7=
EXTT8=
EXTT9=
EXTT10=
EXTT11=
EXTT12=
PLAYORDER=
